<mxfile host="Electron" modified="2023-12-10T22:35:52.069Z" agent="Mozilla/5.0 (Windows NT 10.0; Win64; x64) AppleWebKit/537.36 (KHTML, like Gecko) draw.io/21.7.5 Chrome/114.0.5735.289 Electron/25.8.1 Safari/537.36" etag="RRwt_vR_ekpE03rZ2JbM" version="21.7.5" type="device">
  <diagram name="Page-1" id="_kV-tao2sKt4h9nzARvv">
    <mxGraphModel dx="2612" dy="1988" grid="1" gridSize="10" guides="1" tooltips="1" connect="1" arrows="1" fold="1" page="1" pageScale="1" pageWidth="850" pageHeight="1100" math="0" shadow="0">
      <root>
        <mxCell id="0" />
        <mxCell id="1" parent="0" />
        <mxCell id="o2K4Kg9LrvtEAyZy9hwX-1" value="Project Hardware" style="swimlane;whiteSpace=wrap;html=1;fillColor=#7EA6E0;fontColor=#ffffff;strokeColor=#A9C4EB;gradientColor=none;rounded=0;shadow=0;glass=0;swimlaneFillColor=#5D00BA;direction=east;" vertex="1" parent="1">
          <mxGeometry x="-845" y="-1080" width="840" height="590" as="geometry" />
        </mxCell>
        <mxCell id="o2K4Kg9LrvtEAyZy9hwX-2" value="Purchased Hardware" style="swimlane;whiteSpace=wrap;html=1;fillColor=#FF6666;fontColor=#ffffff;strokeColor=#B20000;swimlaneFillColor=#990000;rounded=1;" vertex="1" parent="o2K4Kg9LrvtEAyZy9hwX-1">
          <mxGeometry x="10" y="30" width="310" height="550" as="geometry" />
        </mxCell>
        <mxCell id="o2K4Kg9LrvtEAyZy9hwX-3" value="Sensors:&lt;br&gt;PhotoFork&lt;br&gt;Switches" style="rounded=0;whiteSpace=wrap;html=1;fillColor=#008a00;fontColor=#ffffff;strokeColor=#005700;" vertex="1" parent="o2K4Kg9LrvtEAyZy9hwX-2">
          <mxGeometry x="95" y="50" width="120" height="60" as="geometry" />
        </mxCell>
        <mxCell id="o2K4Kg9LrvtEAyZy9hwX-4" value="Power:&lt;br&gt;Capacitor Bank&lt;br&gt;AC-DC +/-15VDC&lt;br&gt;Transformer" style="rounded=0;whiteSpace=wrap;html=1;fillColor=#008a00;fontColor=#ffffff;strokeColor=#005700;" vertex="1" parent="o2K4Kg9LrvtEAyZy9hwX-2">
          <mxGeometry x="95" y="150" width="120" height="110" as="geometry" />
        </mxCell>
        <mxCell id="o2K4Kg9LrvtEAyZy9hwX-5" value="Processing: &lt;br&gt;Arduino Mega R3&lt;br&gt;Seven Segment" style="rounded=0;whiteSpace=wrap;html=1;fillColor=#008a00;fontColor=#ffffff;strokeColor=#005700;" vertex="1" parent="o2K4Kg9LrvtEAyZy9hwX-2">
          <mxGeometry x="95" y="290" width="120" height="60" as="geometry" />
        </mxCell>
        <mxCell id="o2K4Kg9LrvtEAyZy9hwX-6" value="Frame:&lt;br&gt;Wood&lt;br&gt;Loom&lt;br&gt;etc" style="rounded=0;whiteSpace=wrap;html=1;fillColor=#008a00;fontColor=#ffffff;strokeColor=#005700;" vertex="1" parent="o2K4Kg9LrvtEAyZy9hwX-2">
          <mxGeometry x="95" y="470" width="120" height="60" as="geometry" />
        </mxCell>
        <mxCell id="o2K4Kg9LrvtEAyZy9hwX-19" value="Output:&lt;br&gt;Power MOSFET&lt;br&gt;Solenoids&lt;br&gt;Light" style="rounded=0;whiteSpace=wrap;html=1;fillColor=#008a00;fontColor=#ffffff;strokeColor=#005700;" vertex="1" parent="o2K4Kg9LrvtEAyZy9hwX-2">
          <mxGeometry x="95" y="380" width="120" height="70" as="geometry" />
        </mxCell>
        <mxCell id="o2K4Kg9LrvtEAyZy9hwX-7" value="Designed Hardware" style="swimlane;whiteSpace=wrap;html=1;fillColor=#FFD966;fontColor=#000000;strokeColor=#BD7000;swimlaneFillColor=#FF8000;rounded=1;" vertex="1" parent="o2K4Kg9LrvtEAyZy9hwX-1">
          <mxGeometry x="540" y="30" width="290" height="550" as="geometry" />
        </mxCell>
        <mxCell id="o2K4Kg9LrvtEAyZy9hwX-8" value="PCBs" style="swimlane;whiteSpace=wrap;html=1;" vertex="1" parent="o2K4Kg9LrvtEAyZy9hwX-7">
          <mxGeometry x="38.75" y="30" width="222.5" height="170" as="geometry">
            <mxRectangle x="55" y="30" width="70" height="30" as="alternateBounds" />
          </mxGeometry>
        </mxCell>
        <mxCell id="o2K4Kg9LrvtEAyZy9hwX-9" value="High speed Timing and control&lt;br&gt;&lt;br&gt;Comparators [Signal gain]&lt;br&gt;Triggerable inputs [Latching&amp;nbsp; system]&lt;br&gt;Signal outputs [next board trigger]" style="rounded=0;whiteSpace=wrap;html=1;fillColor=#0050ef;fontColor=#ffffff;strokeColor=#001DBC;" vertex="1" parent="o2K4Kg9LrvtEAyZy9hwX-8">
          <mxGeometry x="11.25" y="27.5" width="198.75" height="132.5" as="geometry" />
        </mxCell>
        <mxCell id="o2K4Kg9LrvtEAyZy9hwX-29" value="5V Power&amp;nbsp;" style="swimlane;whiteSpace=wrap;html=1;" vertex="1" parent="o2K4Kg9LrvtEAyZy9hwX-7">
          <mxGeometry x="38.75" y="220" width="232.5" height="150" as="geometry">
            <mxRectangle x="55" y="30" width="70" height="30" as="alternateBounds" />
          </mxGeometry>
        </mxCell>
        <mxCell id="o2K4Kg9LrvtEAyZy9hwX-30" value="AC-DC +5VDC&lt;br&gt;" style="rounded=0;whiteSpace=wrap;html=1;fillColor=#0050ef;fontColor=#ffffff;strokeColor=#001DBC;" vertex="1" parent="o2K4Kg9LrvtEAyZy9hwX-29">
          <mxGeometry x="13.44" y="30" width="195.62" height="110" as="geometry" />
        </mxCell>
        <mxCell id="o2K4Kg9LrvtEAyZy9hwX-31" value="" style="endArrow=classic;html=1;rounded=0;exitX=0.481;exitY=-0.007;exitDx=0;exitDy=0;entryX=0.5;entryY=1;entryDx=0;entryDy=0;exitPerimeter=0;" edge="1" parent="o2K4Kg9LrvtEAyZy9hwX-7" source="o2K4Kg9LrvtEAyZy9hwX-29" target="o2K4Kg9LrvtEAyZy9hwX-8">
          <mxGeometry width="50" height="50" relative="1" as="geometry">
            <mxPoint x="150" y="350" as="sourcePoint" />
            <mxPoint x="194" y="200" as="targetPoint" />
          </mxGeometry>
        </mxCell>
        <mxCell id="o2K4Kg9LrvtEAyZy9hwX-40" value="Gate Driver" style="swimlane;whiteSpace=wrap;html=1;" vertex="1" parent="o2K4Kg9LrvtEAyZy9hwX-7">
          <mxGeometry x="38.75" y="390" width="232.5" height="150" as="geometry">
            <mxRectangle x="55" y="30" width="70" height="30" as="alternateBounds" />
          </mxGeometry>
        </mxCell>
        <mxCell id="o2K4Kg9LrvtEAyZy9hwX-41" value="Gate Driver circuit" style="rounded=0;whiteSpace=wrap;html=1;fillColor=#0050ef;fontColor=#ffffff;strokeColor=#001DBC;" vertex="1" parent="o2K4Kg9LrvtEAyZy9hwX-40">
          <mxGeometry x="13.44" y="30" width="195.62" height="110" as="geometry" />
        </mxCell>
        <mxCell id="o2K4Kg9LrvtEAyZy9hwX-33" value="" style="endArrow=classic;html=1;rounded=0;entryX=1;entryY=0.5;entryDx=0;entryDy=0;exitX=0;exitY=0.5;exitDx=0;exitDy=0;" edge="1" parent="o2K4Kg9LrvtEAyZy9hwX-1" source="o2K4Kg9LrvtEAyZy9hwX-30" target="o2K4Kg9LrvtEAyZy9hwX-5">
          <mxGeometry width="50" height="50" relative="1" as="geometry">
            <mxPoint x="620" y="365" as="sourcePoint" />
            <mxPoint x="740" y="330" as="targetPoint" />
            <Array as="points">
              <mxPoint x="430" y="335" />
              <mxPoint x="430" y="350" />
            </Array>
          </mxGeometry>
        </mxCell>
        <mxCell id="o2K4Kg9LrvtEAyZy9hwX-42" value="" style="endArrow=classic;html=1;rounded=0;entryX=0.996;entryY=0.701;entryDx=0;entryDy=0;entryPerimeter=0;exitX=-0.011;exitY=0.636;exitDx=0;exitDy=0;exitPerimeter=0;" edge="1" parent="o2K4Kg9LrvtEAyZy9hwX-1" source="o2K4Kg9LrvtEAyZy9hwX-41" target="o2K4Kg9LrvtEAyZy9hwX-19">
          <mxGeometry width="50" height="50" relative="1" as="geometry">
            <mxPoint x="570" y="520" as="sourcePoint" />
            <mxPoint x="230" y="460" as="targetPoint" />
            <Array as="points">
              <mxPoint x="430" y="520" />
              <mxPoint x="430" y="460" />
            </Array>
          </mxGeometry>
        </mxCell>
        <mxCell id="o2K4Kg9LrvtEAyZy9hwX-46" value="" style="endArrow=classic;html=1;rounded=0;exitX=1;exitY=0.5;exitDx=0;exitDy=0;" edge="1" parent="o2K4Kg9LrvtEAyZy9hwX-1" source="o2K4Kg9LrvtEAyZy9hwX-3">
          <mxGeometry width="50" height="50" relative="1" as="geometry">
            <mxPoint x="330" y="260" as="sourcePoint" />
            <mxPoint x="580" y="110" as="targetPoint" />
            <Array as="points">
              <mxPoint x="340" y="110" />
            </Array>
          </mxGeometry>
        </mxCell>
        <mxCell id="o2K4Kg9LrvtEAyZy9hwX-43" value="" style="endArrow=classic;html=1;rounded=0;exitX=0;exitY=0.25;exitDx=0;exitDy=0;entryX=1;entryY=0.75;entryDx=0;entryDy=0;" edge="1" parent="o2K4Kg9LrvtEAyZy9hwX-1" source="o2K4Kg9LrvtEAyZy9hwX-41" target="o2K4Kg9LrvtEAyZy9hwX-5">
          <mxGeometry width="50" height="50" relative="1" as="geometry">
            <mxPoint x="740" y="350" as="sourcePoint" />
            <mxPoint x="230" y="370" as="targetPoint" />
            <Array as="points">
              <mxPoint x="520" y="478" />
              <mxPoint x="520" y="365" />
            </Array>
          </mxGeometry>
        </mxCell>
        <mxCell id="o2K4Kg9LrvtEAyZy9hwX-70" value="" style="endArrow=classic;html=1;rounded=0;exitX=0;exitY=0.75;exitDx=0;exitDy=0;entryX=1;entryY=0.25;entryDx=0;entryDy=0;" edge="1" parent="o2K4Kg9LrvtEAyZy9hwX-1" source="o2K4Kg9LrvtEAyZy9hwX-8" target="o2K4Kg9LrvtEAyZy9hwX-19">
          <mxGeometry width="50" height="50" relative="1" as="geometry">
            <mxPoint x="670" y="330" as="sourcePoint" />
            <mxPoint x="720" y="280" as="targetPoint" />
            <Array as="points">
              <mxPoint x="390" y="190" />
              <mxPoint x="390" y="428" />
            </Array>
          </mxGeometry>
        </mxCell>
        <mxCell id="o2K4Kg9LrvtEAyZy9hwX-44" value="" style="endArrow=classic;html=1;rounded=0;exitX=1;exitY=0.25;exitDx=0;exitDy=0;" edge="1" parent="1" source="o2K4Kg9LrvtEAyZy9hwX-5">
          <mxGeometry width="50" height="50" relative="1" as="geometry">
            <mxPoint x="-500" y="-770" as="sourcePoint" />
            <mxPoint x="-260" y="-950" as="targetPoint" />
            <Array as="points">
              <mxPoint x="-500" y="-745" />
              <mxPoint x="-500" y="-950" />
            </Array>
          </mxGeometry>
        </mxCell>
        <mxCell id="o2K4Kg9LrvtEAyZy9hwX-45" value="" style="endArrow=classic;html=1;rounded=0;exitX=1;exitY=0.25;exitDx=0;exitDy=0;" edge="1" parent="1" source="o2K4Kg9LrvtEAyZy9hwX-4">
          <mxGeometry width="50" height="50" relative="1" as="geometry">
            <mxPoint x="-510" y="-820" as="sourcePoint" />
            <mxPoint x="-260" y="-960" as="targetPoint" />
            <Array as="points">
              <mxPoint x="-530" y="-872" />
              <mxPoint x="-530" y="-960" />
            </Array>
          </mxGeometry>
        </mxCell>
      </root>
    </mxGraphModel>
  </diagram>
</mxfile>
